<svg width="115" height="20" viewBox="0 0 115 20" fill="none" xmlns="http://www.w3.org/2000/svg">
<path d="M63.1678 0.239746H59.2109V19.976H82.0886V16.6186H63.1678V0.239746Z" fill="white"/>
<path d="M101.102 1.31894C100.526 0.479616 99.6391 0 98.7039 0C97.7686 0 96.8813 0.479616 96.3058 1.31894L83.0684 19.976H87.7926L98.7278 4.50839L107.289 16.6427H94.0276V20H114.387L101.15 1.34293L101.102 1.31894Z" fill="white"/>
<path d="M29.9281 19.976L17.6739 9.83207L29.2326 0.239746H23.813L14.964 7.57788L6.11511 0.239746H0.695446L12.2542 9.83207L0 19.976H5.44365L14.964 12.0863L24.4844 19.976H29.9281Z" fill="white"/>
<path d="M49.6395 0.239746H31.6299V3.59706H49.1119C51.0064 3.59706 52.5412 5.13183 52.5412 7.02632C52.5412 8.9208 51.0064 10.4556 49.1119 10.4556H31.6299V19.952H35.5867V13.8369H49.6395C53.4045 13.8369 56.426 10.7913 56.426 7.0503C56.426 3.30929 53.3805 0.263726 49.6395 0.263726V0.239746Z" fill="white"/>
</svg>
